<mxfile host="app.diagrams.net" agent="Mozilla/5.0 (Windows NT 10.0; Win64; x64) AppleWebKit/537.36 (KHTML, like Gecko) Chrome/131.0.0.0 Safari/537.36" version="25.0.3">
  <diagram name="Page-1" id="MaidpjqclFpNG9KEAF8p">
    <mxGraphModel dx="1878" dy="695" grid="0" gridSize="10" guides="1" tooltips="1" connect="1" arrows="1" fold="1" page="1" pageScale="1" pageWidth="2000" pageHeight="1920" math="0" shadow="0">
      <root>
        <mxCell id="0" />
        <mxCell id="1" parent="0" />
        <mxCell id="8dK41yr5WJlej-E46vAK-29" value="" style="sketch=0;points=[[0,0,0],[0.25,0,0],[0.5,0,0],[0.75,0,0],[1,0,0],[0,1,0],[0.25,1,0],[0.5,1,0],[0.75,1,0],[1,1,0],[0,0.25,0],[0,0.5,0],[0,0.75,0],[1,0.25,0],[1,0.5,0],[1,0.75,0]];outlineConnect=0;fontColor=#232F3E;fillColor=#8C4FFF;strokeColor=#ffffff;dashed=0;verticalLabelPosition=bottom;verticalAlign=top;align=center;html=1;fontSize=12;fontStyle=0;aspect=fixed;shape=mxgraph.aws4.resourceIcon;resIcon=mxgraph.aws4.cloudfront;shadow=1;" parent="1" vertex="1">
          <mxGeometry x="325" y="740" width="78" height="78" as="geometry" />
        </mxCell>
        <mxCell id="8dK41yr5WJlej-E46vAK-37" value="" style="endArrow=classic;html=1;rounded=0;shadow=1;" parent="1" edge="1">
          <mxGeometry width="50" height="50" relative="1" as="geometry">
            <mxPoint x="495" y="908" as="sourcePoint" />
            <mxPoint x="585.0005459384454" y="907.3243169467778" as="targetPoint" />
            <Array as="points">
              <mxPoint x="535" y="908" />
            </Array>
          </mxGeometry>
        </mxCell>
        <mxCell id="8dK41yr5WJlej-E46vAK-38" value="lambda&amp;nbsp;&lt;div&gt;cloudfront invalidator&lt;/div&gt;" style="text;html=1;align=center;verticalAlign=middle;resizable=0;points=[];autosize=1;strokeColor=none;fillColor=none;" parent="1" vertex="1">
          <mxGeometry x="566" y="946" width="130" height="40" as="geometry" />
        </mxCell>
        <mxCell id="8dK41yr5WJlej-E46vAK-39" value="s3&amp;nbsp;&lt;div&gt;github-data-viewer&lt;div&gt;&lt;br&gt;&lt;/div&gt;&lt;/div&gt;" style="text;html=1;align=center;verticalAlign=middle;resizable=0;points=[];autosize=1;strokeColor=none;fillColor=none;" parent="1" vertex="1">
          <mxGeometry x="392" y="948" width="120" height="60" as="geometry" />
        </mxCell>
        <mxCell id="8dK41yr5WJlej-E46vAK-43" value="" style="dashed=0;outlineConnect=0;html=1;align=center;labelPosition=center;verticalLabelPosition=bottom;verticalAlign=top;shape=mxgraph.weblogos.github" parent="1" vertex="1">
          <mxGeometry x="325" y="560" width="75" height="75" as="geometry" />
        </mxCell>
        <mxCell id="8dK41yr5WJlej-E46vAK-44" value="" style="sketch=0;outlineConnect=0;fontColor=#232F3E;gradientColor=none;fillColor=#7AA116;strokeColor=none;dashed=0;verticalLabelPosition=bottom;verticalAlign=top;align=center;html=1;fontSize=12;fontStyle=0;aspect=fixed;pointerEvents=1;shape=mxgraph.aws4.bucket_with_objects;shadow=1;" parent="1" vertex="1">
          <mxGeometry x="415" y="867" width="75" height="78" as="geometry" />
        </mxCell>
        <mxCell id="8dK41yr5WJlej-E46vAK-45" value="" style="endArrow=classic;html=1;rounded=0;shadow=1;" parent="1" source="8dK41yr5WJlej-E46vAK-44" edge="1">
          <mxGeometry width="50" height="50" relative="1" as="geometry">
            <mxPoint x="405" y="907" as="sourcePoint" />
            <mxPoint x="355" y="850" as="targetPoint" />
            <Array as="points">
              <mxPoint x="355" y="907" />
            </Array>
          </mxGeometry>
        </mxCell>
        <mxCell id="8dK41yr5WJlej-E46vAK-50" value="&lt;div&gt;github-data-processor&lt;/div&gt;&lt;div&gt;repository&lt;/div&gt;" style="text;html=1;align=center;verticalAlign=middle;resizable=0;points=[];autosize=1;strokeColor=none;fillColor=none;" parent="1" vertex="1">
          <mxGeometry x="296" y="448" width="135" height="41" as="geometry" />
        </mxCell>
        <mxCell id="8dK41yr5WJlej-E46vAK-51" value="" style="endArrow=classic;html=1;rounded=0;" parent="1" edge="1">
          <mxGeometry width="50" height="50" relative="1" as="geometry">
            <mxPoint x="365" y="490" as="sourcePoint" />
            <mxPoint x="365" y="550" as="targetPoint" />
            <Array as="points">
              <mxPoint x="365" y="530" />
            </Array>
          </mxGeometry>
        </mxCell>
        <mxCell id="8dK41yr5WJlej-E46vAK-98" value="use" style="edgeLabel;html=1;align=center;verticalAlign=middle;resizable=0;points=[];" parent="8dK41yr5WJlej-E46vAK-51" vertex="1" connectable="0">
          <mxGeometry x="-0.3889" relative="1" as="geometry">
            <mxPoint as="offset" />
          </mxGeometry>
        </mxCell>
        <mxCell id="8dK41yr5WJlej-E46vAK-52" value="" style="sketch=0;points=[[0,0,0],[0.25,0,0],[0.5,0,0],[0.75,0,0],[1,0,0],[0,1,0],[0.25,1,0],[0.5,1,0],[0.75,1,0],[1,1,0],[0,0.25,0],[0,0.5,0],[0,0.75,0],[1,0.25,0],[1,0.5,0],[1,0.75,0]];outlineConnect=0;fontColor=#232F3E;fillColor=#8C4FFF;strokeColor=#ffffff;dashed=0;verticalLabelPosition=bottom;verticalAlign=top;align=center;html=1;fontSize=12;fontStyle=0;aspect=fixed;shape=mxgraph.aws4.resourceIcon;resIcon=mxgraph.aws4.api_gateway;" parent="1" vertex="1">
          <mxGeometry x="702" y="635" width="78" height="78" as="geometry" />
        </mxCell>
        <mxCell id="8dK41yr5WJlej-E46vAK-53" value="Api Gateway" style="text;strokeColor=none;align=center;fillColor=none;html=1;verticalAlign=middle;whiteSpace=wrap;rounded=0;" parent="1" vertex="1">
          <mxGeometry x="711" y="725" width="60" height="30" as="geometry" />
        </mxCell>
        <mxCell id="8dK41yr5WJlej-E46vAK-57" value="Amazon DynamoDB" style="sketch=0;outlineConnect=0;fontColor=#232F3E;gradientColor=none;strokeColor=#ffffff;fillColor=#232F3E;dashed=0;verticalLabelPosition=middle;verticalAlign=bottom;align=center;html=1;whiteSpace=wrap;fontSize=10;fontStyle=1;spacing=3;shape=mxgraph.aws4.productIcon;prIcon=mxgraph.aws4.dynamodb;" parent="1" vertex="1">
          <mxGeometry x="1142" y="625" width="80" height="110" as="geometry" />
        </mxCell>
        <mxCell id="8dK41yr5WJlej-E46vAK-59" value="" style="endArrow=classic;html=1;rounded=0;" parent="1" edge="1">
          <mxGeometry relative="1" as="geometry">
            <mxPoint x="974" y="476" as="sourcePoint" />
            <mxPoint x="1181.4581280788177" y="624" as="targetPoint" />
            <Array as="points">
              <mxPoint x="1180" y="476" />
            </Array>
          </mxGeometry>
        </mxCell>
        <mxCell id="8dK41yr5WJlej-E46vAK-60" value="" style="endArrow=classic;html=1;rounded=0;" parent="1" edge="1">
          <mxGeometry relative="1" as="geometry">
            <mxPoint x="1137" y="673.7" as="sourcePoint" />
            <mxPoint x="974" y="674" as="targetPoint" />
            <Array as="points">
              <mxPoint x="1037" y="674.3100000000001" />
            </Array>
          </mxGeometry>
        </mxCell>
        <mxCell id="8dK41yr5WJlej-E46vAK-61" value="" style="endArrow=classic;html=1;rounded=0;" parent="1" edge="1">
          <mxGeometry relative="1" as="geometry">
            <mxPoint x="1182" y="739" as="sourcePoint" />
            <mxPoint x="974" y="879" as="targetPoint" />
            <Array as="points">
              <mxPoint x="1182" y="879" />
            </Array>
          </mxGeometry>
        </mxCell>
        <mxCell id="8dK41yr5WJlej-E46vAK-62" value="? username" style="text;html=1;align=center;verticalAlign=middle;resizable=0;points=[];autosize=1;strokeColor=none;fillColor=none;" parent="1" vertex="1">
          <mxGeometry x="776" y="853" width="90" height="30" as="geometry" />
        </mxCell>
        <mxCell id="8dK41yr5WJlej-E46vAK-63" value="" style="endArrow=classic;startArrow=classic;html=1;rounded=0;" parent="1" edge="1">
          <mxGeometry width="50" height="50" relative="1" as="geometry">
            <mxPoint x="742.5" y="635" as="sourcePoint" />
            <mxPoint x="899.5" y="475" as="targetPoint" />
            <Array as="points">
              <mxPoint x="742.5" y="475" />
            </Array>
          </mxGeometry>
        </mxCell>
        <mxCell id="8dK41yr5WJlej-E46vAK-64" value="" style="endArrow=classic;startArrow=classic;html=1;rounded=0;entryX=-0.048;entryY=0.583;entryDx=0;entryDy=0;entryPerimeter=0;" parent="1" edge="1">
          <mxGeometry width="50" height="50" relative="1" as="geometry">
            <mxPoint x="785" y="675" as="sourcePoint" />
            <mxPoint x="899.6965983485363" y="674.984" as="targetPoint" />
          </mxGeometry>
        </mxCell>
        <mxCell id="8dK41yr5WJlej-E46vAK-65" value="" style="endArrow=classic;startArrow=classic;html=1;rounded=0;entryX=0.5;entryY=1;entryDx=0;entryDy=0;" parent="1" target="8dK41yr5WJlej-E46vAK-53" edge="1">
          <mxGeometry width="50" height="50" relative="1" as="geometry">
            <mxPoint x="905" y="878" as="sourcePoint" />
            <mxPoint x="740.6800000000001" y="761.0200000000001" as="targetPoint" />
            <Array as="points">
              <mxPoint x="741" y="878" />
            </Array>
          </mxGeometry>
        </mxCell>
        <mxCell id="8dK41yr5WJlej-E46vAK-67" value="" style="endArrow=classic;html=1;rounded=0;" parent="1" edge="1">
          <mxGeometry width="50" height="50" relative="1" as="geometry">
            <mxPoint x="365" y="637" as="sourcePoint" />
            <mxPoint x="695" y="657" as="targetPoint" />
            <Array as="points">
              <mxPoint x="365" y="647" />
              <mxPoint x="365" y="657" />
              <mxPoint x="535" y="657" />
            </Array>
          </mxGeometry>
        </mxCell>
        <mxCell id="8dK41yr5WJlej-E46vAK-71" value="AWS IAM" style="sketch=0;outlineConnect=0;fontColor=#232F3E;gradientColor=none;fillColor=#DD344C;strokeColor=none;dashed=0;verticalLabelPosition=bottom;verticalAlign=top;align=center;html=1;fontSize=12;fontStyle=0;aspect=fixed;pointerEvents=1;shape=mxgraph.aws4.role;" parent="1" vertex="1">
          <mxGeometry x="397.5" y="530.28" width="58" height="32.72" as="geometry" />
        </mxCell>
        <mxCell id="8dK41yr5WJlej-E46vAK-73" value="" style="sketch=0;outlineConnect=0;fontColor=#232F3E;gradientColor=none;fillColor=#232F3D;strokeColor=none;dashed=0;verticalLabelPosition=bottom;verticalAlign=top;align=center;html=1;fontSize=12;fontStyle=0;aspect=fixed;pointerEvents=1;shape=mxgraph.aws4.authenticated_user;" parent="1" vertex="1">
          <mxGeometry x="740" y="393" width="45" height="45" as="geometry" />
        </mxCell>
        <mxCell id="8dK41yr5WJlej-E46vAK-74" value="&amp;nbsp;Authenticated&amp;nbsp;&lt;div&gt;user&lt;/div&gt;" style="text;html=1;align=center;verticalAlign=middle;resizable=0;points=[];autosize=1;strokeColor=none;fillColor=none;" parent="1" vertex="1">
          <mxGeometry x="709" y="435" width="100" height="40" as="geometry" />
        </mxCell>
        <mxCell id="8dK41yr5WJlej-E46vAK-75" value="/putData" style="text;html=1;align=center;verticalAlign=middle;resizable=0;points=[];autosize=1;strokeColor=none;fillColor=none;" parent="1" vertex="1">
          <mxGeometry x="512" y="630" width="70" height="30" as="geometry" />
        </mxCell>
        <mxCell id="8dK41yr5WJlej-E46vAK-76" value="" style="endArrow=classic;html=1;rounded=0;" parent="1" edge="1">
          <mxGeometry width="50" height="50" relative="1" as="geometry">
            <mxPoint x="365" y="739" as="sourcePoint" />
            <mxPoint x="695" y="689" as="targetPoint" />
            <Array as="points">
              <mxPoint x="365" y="689" />
            </Array>
          </mxGeometry>
        </mxCell>
        <mxCell id="8dK41yr5WJlej-E46vAK-77" value="/getData" style="text;html=1;align=center;verticalAlign=middle;resizable=0;points=[];autosize=1;strokeColor=none;fillColor=none;" parent="1" vertex="1">
          <mxGeometry x="511" y="665" width="70" height="30" as="geometry" />
        </mxCell>
        <mxCell id="8dK41yr5WJlej-E46vAK-90" value="" style="endArrow=classic;html=1;rounded=0;exitX=1;exitY=0.692;exitDx=0;exitDy=0;exitPerimeter=0;" parent="1" edge="1">
          <mxGeometry width="50" height="50" relative="1" as="geometry">
            <mxPoint x="181.99999999999977" y="609.98" as="sourcePoint" />
            <mxPoint x="322" y="610" as="targetPoint" />
          </mxGeometry>
        </mxCell>
        <mxCell id="8dK41yr5WJlej-E46vAK-92" value="push code&amp;nbsp;&lt;div&gt;to repository&lt;/div&gt;" style="edgeLabel;html=1;align=center;verticalAlign=middle;resizable=0;points=[];" parent="8dK41yr5WJlej-E46vAK-90" vertex="1" connectable="0">
          <mxGeometry x="-0.1425" relative="1" as="geometry">
            <mxPoint as="offset" />
          </mxGeometry>
        </mxCell>
        <mxCell id="8dK41yr5WJlej-E46vAK-94" value="users&lt;div&gt;&lt;br&gt;&lt;/div&gt;" style="text;html=1;align=center;verticalAlign=middle;resizable=0;points=[];autosize=1;strokeColor=none;fillColor=none;" parent="1" vertex="1">
          <mxGeometry x="117" y="817" width="50" height="40" as="geometry" />
        </mxCell>
        <mxCell id="8dK41yr5WJlej-E46vAK-96" value="" style="endArrow=classic;html=1;rounded=0;" parent="1" edge="1">
          <mxGeometry width="50" height="50" relative="1" as="geometry">
            <mxPoint x="188" y="784" as="sourcePoint" />
            <mxPoint x="314" y="784" as="targetPoint" />
          </mxGeometry>
        </mxCell>
        <mxCell id="8dK41yr5WJlej-E46vAK-97" value="github&lt;div&gt;cloudfront-viewer&lt;span style=&quot;background-color: initial;&quot;&gt;&amp;nbsp;&lt;/span&gt;&lt;/div&gt;" style="text;html=1;align=center;verticalAlign=middle;resizable=0;points=[];autosize=1;strokeColor=none;fillColor=none;" parent="1" vertex="1">
          <mxGeometry x="302" y="814" width="120" height="40" as="geometry" />
        </mxCell>
        <mxCell id="8dK41yr5WJlej-E46vAK-99" value="" style="sketch=0;outlineConnect=0;fontColor=#232F3E;gradientColor=none;fillColor=#232F3D;strokeColor=none;dashed=0;verticalLabelPosition=bottom;verticalAlign=top;align=center;html=1;fontSize=12;fontStyle=0;aspect=fixed;pointerEvents=1;shape=mxgraph.aws4.users;" parent="1" vertex="1">
          <mxGeometry x="105" y="740" width="78" height="78" as="geometry" />
        </mxCell>
        <mxCell id="8dK41yr5WJlej-E46vAK-100" value="github User&lt;div&gt;&lt;br&gt;&lt;/div&gt;" style="sketch=0;outlineConnect=0;fontColor=#232F3E;gradientColor=none;strokeColor=#232F3E;fillColor=#ffffff;dashed=0;verticalLabelPosition=bottom;verticalAlign=top;align=center;html=1;fontSize=12;fontStyle=0;aspect=fixed;shape=mxgraph.aws4.resourceIcon;resIcon=mxgraph.aws4.user;" parent="1" vertex="1">
          <mxGeometry x="117" y="576" width="60" height="60" as="geometry" />
        </mxCell>
        <mxCell id="8dK41yr5WJlej-E46vAK-101" value="" style="sketch=0;points=[[0,0,0],[0.25,0,0],[0.5,0,0],[0.75,0,0],[1,0,0],[0,1,0],[0.25,1,0],[0.5,1,0],[0.75,1,0],[1,1,0],[0,0.25,0],[0,0.5,0],[0,0.75,0],[1,0.25,0],[1,0.5,0],[1,0.75,0]];outlineConnect=0;fontColor=#232F3E;fillColor=#ED7100;strokeColor=#ffffff;dashed=0;verticalLabelPosition=bottom;verticalAlign=top;align=center;html=1;fontSize=12;fontStyle=0;aspect=fixed;shape=mxgraph.aws4.resourceIcon;resIcon=mxgraph.aws4.lambda;shadow=1;" parent="1" vertex="1">
          <mxGeometry x="591" y="869" width="73" height="73" as="geometry" />
        </mxCell>
        <mxCell id="8dK41yr5WJlej-E46vAK-106" value="" style="sketch=0;points=[[0,0,0],[0.25,0,0],[0.5,0,0],[0.75,0,0],[1,0,0],[0,1,0],[0.25,1,0],[0.5,1,0],[0.75,1,0],[1,1,0],[0,0.25,0],[0,0.5,0],[0,0.75,0],[1,0.25,0],[1,0.5,0],[1,0.75,0]];outlineConnect=0;fontColor=#232F3E;fillColor=#ED7100;strokeColor=#ffffff;dashed=0;verticalLabelPosition=bottom;verticalAlign=top;align=center;html=1;fontSize=12;fontStyle=0;aspect=fixed;shape=mxgraph.aws4.resourceIcon;resIcon=mxgraph.aws4.lambda;" parent="1" vertex="1">
          <mxGeometry x="904" y="440" width="65" height="65" as="geometry" />
        </mxCell>
        <mxCell id="8dK41yr5WJlej-E46vAK-107" value="lambda&amp;nbsp;&lt;div&gt;put-data&lt;/div&gt;" style="text;html=1;align=center;verticalAlign=middle;resizable=0;points=[];autosize=1;strokeColor=none;fillColor=none;" parent="1" vertex="1">
          <mxGeometry x="899" y="503" width="70" height="40" as="geometry" />
        </mxCell>
        <mxCell id="8dK41yr5WJlej-E46vAK-108" value="" style="sketch=0;points=[[0,0,0],[0.25,0,0],[0.5,0,0],[0.75,0,0],[1,0,0],[0,1,0],[0.25,1,0],[0.5,1,0],[0.75,1,0],[1,1,0],[0,0.25,0],[0,0.5,0],[0,0.75,0],[1,0.25,0],[1,0.5,0],[1,0.75,0]];outlineConnect=0;fontColor=#232F3E;fillColor=#ED7100;strokeColor=#ffffff;dashed=0;verticalLabelPosition=bottom;verticalAlign=top;align=center;html=1;fontSize=12;fontStyle=0;aspect=fixed;shape=mxgraph.aws4.resourceIcon;resIcon=mxgraph.aws4.lambda;" parent="1" vertex="1">
          <mxGeometry x="904" y="641.5" width="65" height="65" as="geometry" />
        </mxCell>
        <mxCell id="8dK41yr5WJlej-E46vAK-110" value="" style="sketch=0;points=[[0,0,0],[0.25,0,0],[0.5,0,0],[0.75,0,0],[1,0,0],[0,1,0],[0.25,1,0],[0.5,1,0],[0.75,1,0],[1,1,0],[0,0.25,0],[0,0.5,0],[0,0.75,0],[1,0.25,0],[1,0.5,0],[1,0.75,0]];outlineConnect=0;fontColor=#232F3E;fillColor=#ED7100;strokeColor=#ffffff;dashed=0;verticalLabelPosition=bottom;verticalAlign=top;align=center;html=1;fontSize=12;fontStyle=0;aspect=fixed;shape=mxgraph.aws4.resourceIcon;resIcon=mxgraph.aws4.lambda;" parent="1" vertex="1">
          <mxGeometry x="907" y="844" width="65" height="65" as="geometry" />
        </mxCell>
        <mxCell id="8dK41yr5WJlej-E46vAK-111" value="lambda&lt;div&gt;getUsers&lt;div&gt;&lt;br&gt;&lt;/div&gt;&lt;/div&gt;" style="text;html=1;align=center;verticalAlign=middle;resizable=0;points=[];autosize=1;strokeColor=none;fillColor=none;" parent="1" vertex="1">
          <mxGeometry x="899" y="705" width="70" height="60" as="geometry" />
        </mxCell>
        <mxCell id="8dK41yr5WJlej-E46vAK-112" value="lambda&lt;div&gt;getData&lt;/div&gt;" style="text;html=1;align=center;verticalAlign=middle;resizable=0;points=[];autosize=1;strokeColor=none;fillColor=none;" parent="1" vertex="1">
          <mxGeometry x="905" y="907" width="70" height="40" as="geometry" />
        </mxCell>
        <mxCell id="8dK41yr5WJlej-E46vAK-115" value="" style="shape=image;verticalLabelPosition=bottom;labelBackgroundColor=default;verticalAlign=top;aspect=fixed;imageAspect=0;image=data:image/png,iVBORw0KGgoAAAANSUhEUgAAAFIAAABRCAYAAABBuPE1AAAAAXNSR0IArs4c6QAAAARnQU1BAACxjwv8YQUAAAAJcEhZcwAAFxEAABcRAcom8z8AAAypSURBVHhe7ZwJVJVlGsefy75cLosoKGAou4xBajqOiqYmiNCoJYiUprkvaSru4hIjgiJMioKKY7lUTplmigqIgJqac5pzxk5l1nQsFxaVHS7I/c95Prh0+bgQOtwuy/2f8z9yuPJ+9/l97/s+7/Z9RDrppJNOOumkRUmIaAgRje/g9hYH3toyIaL7VpaWsLe3h52dXYcyx2RmZgYiOikOvLVlRkQP9iUlobS0FHl373Yoc0wzZ8xgkGfEgbe2GOTdox98AJa8tLRDmTV/7lwGeUocuCb066GDB4WLlj5+3KHMmjt7tsZB2hNRMBE92pecDCgUjb5IZUkJqkpL25Urior+MJC2RLSBiL6xMNODRELYk5ioFmTevXu4f+dOu/Kj3FyUFRZqHORAIrrh4mCE6HndcCnJGaYGhJR9/2jQtCuKi4UvM+bll2FkZNSuHB0VVR+LpkAOIKJ7rwyT4uYRF9Rc9sKDL9xhrEfYl3ygAUjlHT135gwOv/9+u/LXX32FytJSjYE0J6Kr/oPMce+UG8oueOLROQ/8fNxVLcj6Pqa6Wvh9e9KT8nKUPHqkMZChXSz1cXW/c015picenHZvEUhu4pxwntXlKh0//yz+XBNWvaYmQJ6dMsYSRekeivwz7shtIciiggIU5uc/s/nvlWUVP3zY6HNNmK+jBuRxMZBnVeGupXbyskxPRV4LQCqTzbjAQMhksmf2nFmzoJDLoaipwYqlSxt9rgnHRkdDUTcCUQF5jYgCiGgYEfUUw3ka4chGB0VllpcA8fdAKpPNp8eOYWdCwjP73OnTtU2urAyZaWmNPteEr+bkCNdTgpwzazYM9Ak2Mn1ITfUY6m0iOkhEg8WQWiIc3eiAloKsbxpPngi/f2ZVVQkdP5tr5h+hJxUVDZJNWPhb8O1Fwgjl6r5e2LXMHqMGmDPQEiJaTUR6YljNiWvkU4Ns72ZNnvIW+ruSMNwrTvNAZZYnHp71QNwiO5jX1tAoMazm1KlB9nMhVFz0RJ5K7NU5Xkhe2QPGhpInRDRRDKwpPTVI7ie5f/ujmqSmNG36ArzQm1CZ5Y68067IrXNBqhvKMtwxI0jGtfIrMbCm1GKQ3L8wQO4fiwoKas6nnq1etzayMjx8alVIaLgiJDQc7cVTpk6Hrb0zvJ8jPD7fB/mpHP9vLs/0RmZib+jrEcP8kIh21jX1ECLqKobIajHImspKHtQq9ifvre7b17daZiFVuDpY1/Rz61ozyMsO7ckDPbph1IsuWPnmS7h/fiXy0lfhwfmV9c7PWIVfUyOw7I0RGDfUG4FDveHXzxXdu1oy2B+JaAkRGT41SMjl+Pn27ZrAccFP9CSkCPP3xfHtM3Drs3Uoyo5FxZc72qVLLm3Hg7Stap2bHoPSy9vr/29+RjRuHI5A5KwAyKQmDHQPERm0COTepBSB44/ffafw8XmhxqmrFJ/FvYXinG0ovxKHRxf5glvwIO1vHd75GVtQcmkb5Nd24OOt02FjKez5LG4RyIMHDqG6uhp+w0cqHG1N8a/Dy1F5dQfyMjoHPHXm2OXX47F6xsuQ1A7iuzQL0kSf8OHRY0jZt18hIcLZXXMFiKqFcm3ku1T+ZZxGXHppO/LaYI0vzI7FjSMRsJEJtdKvWZBSY0LCjp3weaE/Zo9/UWjKqs2Y70zBhWhkJC3CkS1vasTnEhcIIHPTGwejTedfiMb9tCh4u9gzyGnNgrSWEsLCpsGhux3Sds8XOl5lQQz08cUYxL0zAZZSE+gTtboNiGBhaoS4pROEWi8ORptmkPyvj7sDg5zZLEhbSwmcnD0xrJ8Hbp1YJyQWZUEPM7fiv19sgo21DHP9nPDr9jH4ceto3I5uHXNZuQkBGO4iw599XVF2eXubSmoPL2zF7ZMb4NjNikEGNgPSDXY2+iCJvmLiSF8U5cQ2CKQwKxbZKUtgYmSIU4sGAgcnoGxPEMpbyZXJwZAnB2GoiyVe8x8gDD/EwWjTPORL27MAUjPjCiLyaRZkVyt9po0l4SMgFyUZbmp71obB0cYU19b6QZ4cjMc7A1vNDPPbqJFw62aGzQuCG3QrbcGcL/asCYVEIvmJiLo1C9JaJqyAIHH1pEaBcEadFzoCvg5S5CUEoDIpCCW7x7WakTIeWSuGQGZmiONxs4QaIA5Gm5Zfi0fE1FHM51LdgbPGIHnLofC8B1a8bg0jAwMhc4oDqboWj4BhfdHf0QxFuwKRnzAWufEBrWK+MSWJ47Ap2B1Gxsb45pM1DfpnbZtHETz8eW2UL4P8oMkBOVue7YkDa+xgYS7F95+tbxQI19CdKydBamIIC0OC1KAVXVeemZEBIqaNFhJbWxpL8ve5fTISL3o/xyBXNQmSa2RRmgfmT7TA8+7OuHsuqj7dK82Jh8eR3OwSVkzSiD+OmSFcS3xtbbsoZxuuH1qOrtZSBslHe9SDLEh1B2+EvdTPEKH+A4VUz/NMcYEMk4cl3F9owmVX4oSbdV9NMNo0t8ZTCXMYYiURuTUJkpfbfznJwx/ChtlBKLvCY7iGhXGAvBqiSbel5qw0c+AFm/hlExjkd0Rk1SRITjTXUpxhbiLBwc3TUPFlnJoCedqmaTcORNvm78Vj6DmvDmGQJ4hIv0mQpRmeOLjeDj1spUhPelu4A8qCuKZwYcF+3rC1MteoF4b4CePVXDUBacvcEjnxDu/vyiBjlBDVgpRneWHF6zK4P9cdt06sx0OVjM0Q+d/9kWHYOGesRv3P2BlChhQHo00XXNiKn05tQG/HLgxyVtMgz7gLP4/3M8agvh5CbVTCUzUngqrrCRo118b756MaXVubLs6ORUbyQlhbmHKiGdUkSE40d0+5YZC3Id4YN0SYCokL68zmfJESGQY9ieQXInJuEmRRmie+fr8XenU3QMziiXV7Go0L7KzmGd26mf7crG+o7tc0AsnnI88lOMHEWB+n35vXaGrYmc2Jhtdgw8cOYJAfqUJsDDLTE8kru8Hc1Aw3j60R/lBcYGd17RrsRgz26cUg1zUJkmczRekeWDzJAj7uPfHzF5vaXNbUpguzY/Dvj1bBzsaCQfLjd+pB5qfWLqGN7G+IV0f1R0Gm+qlhZzWPYM4lzmeIcnXPMNaD5Dk2H3HrYUtYOS1AWJVui7MLbZlBvhfxGoO8RUR2TYJ8fN4D11Oc0UWmh6Q1U1AhWhXvzFbOseeHDGOQp8XHVRqALL3giUMb7IWp4dldCxtMDTu7eVLCPEYP8mSQfxdDZNWDrMrxQuR0KzjZd62dGuoSTb2ZxU+nNqJPL2Efe5EYIksAWZXtJRy4DB9jBh/33sL4Ud3UsLO6OCcWF/e9DVtraRURjRVDZAkgn1zyEh5Y8vM1QljA4NpVF12iqTcn3kPvToWeniSXiHqLIbIEkLjSBzcP94azvT62LByv6x9VzBWKzzxFLQjiZv0f1TVIVdWCvNYH2Xt6Co9LnIyfowOpYmENMnMrpr8yiEF+IgaoFI5sqgV5YC3vGprhxpEVwnajuMDOak40d85swlBfFwa5UQxQKRytA/nOZBmed3MSthp1Gfs3P86KwbefroN9F+Fw/iQxQKXqQY4eYIhgP18BIm8piAvsrObWmZ60EAYGepyx+ZFstcJHmx2EAwG9uhMWTR4lbIWKC+vM5hFM4qoQro18OtdRDFApfLrFET8c640etgZIiAhpcye/tG3eJVgcNoJBphGRkRigUvg81gln4x1h38WsdjE3R5dolOZJCR+/5kdEiGivGJ6qkBrXE7uX28LWygq3TnCi0fWPSgtTw883wNfDkUFGiOGpCidjnLB8iiW8XZxrDyzp1iDrzVPDSweW8GJuNREFieGpCoc3OGDCcFOE+g8SUr1ujv2b+Rwo76/r6UkKichFDE9V1QmLu1X7uBrg3XmvCHdAN8euNZ/w4EQTs/iv3Kz5nI+xGJ6qbk4PlNV070KK/ZHhuu1XFedlRAvbLUF+f2KQ/GaBZrW5p70BLKWk2L06tM09hqFNc7bO3Ps2pKbGCnWbXWJ5EFExv75rfoifcPZP17RrszUflqqrjVl179P8XcVy0nFxtMUPJ9Z3+gULXunhs011Jyr4/Rb8BpYWyYKIUhnmrIl/Eao0r5C3xYOemjKPVHh9gWN/dDEGa2f6c6bmVzE0OHHWEvH24ucMkw9Rfl/3HDZnLfnVeOE5m47peGHRtvTyNgHkheRFyubMw52nhqgUzyP5lP5d5x42mD3xL4hfNhEpkVOE85Ad0Rzb3nWTsXHuWPgP9oKZiRFDTH+a5tycOAEx0EwiusNvNu3g5hj5JSC7iGicuj3r/1f8AiHOVp3BDY7o6aSTTjrp1Hr6H0ZWW8wSNgtsAAAAAElFTkSuQmCC;" parent="1" vertex="1">
          <mxGeometry x="342" y="394" width="51.05" height="50.43" as="geometry" />
        </mxCell>
      </root>
    </mxGraphModel>
  </diagram>
</mxfile>
